<svg width="61" height="64" viewBox="0 0 61 64" fill="none" xmlns="http://www.w3.org/2000/svg">
<path d="M0 60.5677C3.47158 64.236 9.10014 64.236 12.5717 60.5677L18.8077 53.9782C18.5356 53.6907 18.3177 53.3717 18.1351 53.0363C18.1099 52.9916 18.0903 52.9452 18.0669 52.8996C17.9015 52.5706 17.7659 52.2286 17.6749 51.8757C17.2703 50.2984 17.6349 48.5461 18.8077 47.3075L20.5522 45.4981L17.4068 42.1744L0 60.5677Z" fill="white"/>
<path d="M59.6523 5.99556L54.7883 0.855724C53.9008 -0.0821165 52.4621 -0.0821165 51.5746 0.855724L24.2625 29.7167C23.375 30.6545 23.375 32.1747 24.2625 33.1125L18.8254 38.8579C18.3502 39.36 18.3502 40.1743 18.8254 40.6763L21.9685 43.9975C22.4436 44.4996 23.2143 44.4996 23.6894 43.9975L29.1265 38.2522C30.014 39.1901 31.4527 39.1901 32.3402 38.2522L59.6531 9.39144C60.5398 8.45359 60.5398 6.93341 59.6523 5.99556ZM40.8202 26.673C40.389 27.1287 39.6904 27.1287 39.2592 26.673L35.0883 22.2657C34.6571 21.8101 34.6571 21.0711 35.0883 20.6162C35.5195 20.1606 36.2181 20.1606 36.6493 20.6162L40.8202 25.0236C41.2514 25.4784 41.2514 26.2174 40.8202 26.673ZM43.4451 23.8993C43.0139 24.355 42.3153 24.355 41.8841 23.8993L37.7132 19.492C37.282 19.0363 37.282 18.2982 37.7132 17.8425C38.1444 17.3869 38.843 17.3869 39.2742 17.8425L43.4451 22.2499C43.8763 22.7047 43.8763 23.4437 43.4451 23.8993ZM46.0699 21.1258C45.6387 21.5814 44.9401 21.5814 44.5089 21.1258L40.338 16.7184C39.9068 16.2628 39.9068 15.5246 40.338 15.069C40.7692 14.6133 41.4678 14.6133 41.899 15.069L46.0699 19.4763C46.5011 19.932 46.5011 20.6701 46.0699 21.1258ZM48.6941 18.3521C48.2629 18.8077 47.5643 18.8077 47.1331 18.3521L42.9622 13.9447C42.5309 13.4891 42.5309 12.7509 42.9622 12.2952C43.3934 11.8396 44.0919 11.8396 44.5232 12.2952L48.6941 16.7026C49.1253 17.1582 49.1253 17.8972 48.6941 18.3521Z" fill="white"/>
</svg>
