<svg width="72" height="55" viewBox="0 0 72 55" fill="none" xmlns="http://www.w3.org/2000/svg">
<path d="M48.4934 24.3893C48.0268 24.1294 47.4344 24.2912 47.1704 24.751C46.9066 25.2109 47.0709 25.796 47.5382 26.0559C48.2551 26.4581 48.6926 26.9069 48.9818 27.3706C47.7847 27.7849 46.7235 27.9554 45.7858 27.9554C44.4136 27.9541 43.2912 27.5972 42.3447 27.0504C41.4007 26.5023 40.6373 25.753 40.0585 24.9755C39.1044 23.694 37.8631 22.5525 36.4 21.7198C34.939 20.8895 33.2489 20.3707 31.4349 20.3707C29.8443 20.3696 28.168 20.7731 26.5071 21.6719C25.8281 22.0386 25.2395 22.4677 24.7268 22.9361C22.7063 23.7025 20.9652 23.9784 19.4923 23.9784C17.3939 23.9784 15.8264 23.4228 14.7784 22.8771C14.2551 22.6049 13.8638 22.3339 13.6105 22.1377C13.4834 22.0384 13.3909 21.9598 13.3335 21.9085L13.2737 21.852L13.2643 21.8434H13.2639C12.8917 21.4669 12.2794 21.4572 11.8942 21.8225C11.5084 22.1891 11.4972 22.7949 11.8694 23.1751C11.9235 23.2291 12.5912 23.9023 13.8694 24.5694C14.4288 24.8613 15.1146 25.1481 15.9068 25.3824C15.6964 25.6743 15.409 26.1009 15.096 26.6442C14.4942 27.6902 13.8028 29.1582 13.4505 30.8897C13.3454 31.4071 13.6864 31.9112 14.2123 32.0154C14.7381 32.1183 15.2502 31.7822 15.3547 31.2637C15.6502 29.8057 16.2539 28.5095 16.7853 27.5885C17.0504 27.1275 17.2962 26.7607 17.473 26.5142C17.5613 26.3904 17.6323 26.296 17.6796 26.2346C17.7032 26.2051 17.7213 26.1819 17.7319 26.1683L17.7431 26.1548L17.7444 26.1536L17.745 26.1523C17.8345 26.0444 17.8944 25.923 17.9285 25.7955C18.4226 25.8555 18.9415 25.8924 19.4923 25.8911C20.5134 25.8924 21.6316 25.7734 22.8358 25.5037C22.2389 26.7717 21.9933 28.0949 21.9926 29.3076C21.995 30.529 22.2309 31.6376 22.6516 32.5205C22.8811 32.9988 23.4604 33.2023 23.9452 32.9767C24.4299 32.751 24.6371 32.1796 24.4075 31.7027V31.7014C24.1375 31.1471 23.932 30.2741 23.9352 29.3076C23.9345 28.2653 24.1629 27.1175 24.7106 26.0703C25.2612 25.023 26.1163 24.0677 27.4412 23.3491C28.8393 22.5949 30.1741 22.2858 31.4349 22.2847C32.8704 22.2847 34.2227 22.6931 35.4298 23.3773C36.6358 24.0628 37.6894 25.0278 38.4919 26.1069C39.1982 27.0561 40.143 27.9929 41.3589 28.6993C42.5723 29.4057 44.0622 29.8703 45.7858 29.8691C46.9264 29.8691 48.1654 29.6655 49.4959 29.2191L49.499 29.2877C49.499 29.7562 49.4249 30.1829 49.3509 30.4846C49.3142 30.6354 49.2775 30.7545 49.252 30.8317C49.2389 30.8696 49.229 30.8978 49.2228 30.9137L49.2172 30.9285L49.2166 30.9308H49.2172C49.0205 31.4202 49.2626 31.9745 49.7591 32.1706C50.2569 32.3669 50.8226 32.1277 51.0218 31.6372C51.0466 31.5686 51.4375 30.6133 51.4412 29.2876C51.4412 28.5272 51.306 27.6345 50.8575 26.753C50.412 25.8719 49.6428 25.0258 48.4934 24.3893Z" fill="white"/>
<path d="M50.6591 17.9989C47.9896 17.9989 45.8458 17.0301 44.3629 15.7621C43.6231 15.1294 43.0542 14.4217 42.6804 13.7449C42.3045 13.0668 42.1321 12.4217 42.1346 11.9386C42.1346 11.41 41.6996 10.9821 41.1633 10.9821C40.627 10.9821 40.1924 11.41 40.1924 11.9386C40.1949 12.8386 40.4805 13.7608 40.9746 14.6585C41.4918 15.593 42.2472 16.5004 43.2074 17.2998C43.0138 17.5648 42.7468 17.9058 42.4059 18.2711C41.666 19.067 40.5995 19.9486 39.3262 20.3938C38.821 20.5716 38.5578 21.1198 38.7383 21.6163C38.9187 22.1143 39.4746 22.3744 39.9792 22.1963C41.7072 21.5844 43.0008 20.4687 43.8783 19.5193C44.2692 19.095 44.5734 18.7076 44.7981 18.3974C46.4048 19.3109 48.3892 19.9142 50.6593 19.913C51.1951 19.913 51.6308 19.4851 51.6308 18.9565C51.6304 18.4282 51.1948 17.9989 50.6591 17.9989Z" fill="white"/>
<path d="M44.1847 36.7121C42.3678 36.7121 40.924 36.3662 39.764 35.8377C38.0279 35.0431 36.9015 33.8218 36.1928 32.604C35.8394 31.9969 35.5955 31.3925 35.4417 30.8614C35.2874 30.3329 35.2269 29.8694 35.2282 29.5886C35.2282 29.0601 34.7939 28.632 34.2574 28.632C33.7204 28.632 33.2861 29.06 33.2861 29.5886C33.2861 29.9332 33.3278 30.3146 33.4131 30.7339C33.5612 31.4647 33.8431 32.3098 34.2999 33.1804C34.9851 34.4852 36.0728 35.8536 37.6982 36.8937C38.1051 37.156 38.5457 37.394 39.0198 37.6072C39.0938 37.9212 39.1966 38.4803 39.1959 39.1548C39.1959 39.6454 39.1423 40.1922 38.9918 40.7527C38.8412 41.3131 38.5961 41.8846 38.2065 42.44C37.901 42.8754 38.0111 43.4713 38.4524 43.7718C38.8937 44.0722 39.4984 43.9644 39.8034 43.5303C40.3336 42.7749 40.6695 41.99 40.8699 41.242C41.071 40.4928 41.1381 39.7803 41.1381 39.1548C41.1381 38.8421 41.1207 38.5527 41.0945 38.2879C42.0305 38.5026 43.0559 38.6276 44.1847 38.6263C44.7206 38.6263 45.1556 38.1972 45.1556 37.6686C45.1556 37.1412 44.7206 36.7121 44.1847 36.7121Z" fill="white"/>
<path d="M57.3762 22.3376C56.8953 21.9294 56.3763 21.5945 55.8286 21.3566C55.2817 21.1187 54.7035 20.9764 54.1117 20.9764C53.5754 20.9764 53.1404 21.4043 53.1404 21.9329C53.1404 22.4628 53.5754 22.8907 54.1117 22.8907C54.4689 22.8895 54.9207 23.0121 55.3955 23.2831C56.1073 23.6853 56.8473 24.4076 57.3855 25.3126C57.9269 26.2163 58.2698 27.2919 58.2692 28.4028C58.2648 29.6255 57.874 30.9008 56.8162 32.1689C56.4746 32.5772 56.5331 33.1793 56.9469 33.5164C57.3601 33.8525 57.9724 33.7949 58.3141 33.3877C59.6469 31.8031 60.2156 30.0459 60.2113 28.4028C60.2113 27.4046 60.0084 26.4495 59.6675 25.5787C59.1546 24.2737 58.3376 23.1567 57.3762 22.3376Z" fill="white"/>
<path d="M23.5607 17.2366V17.2353C24.2278 16.4566 25.1781 15.8459 26.2614 15.4352C27.3429 15.0231 28.5502 14.8171 29.6796 14.8183C30.7798 14.8158 31.8041 15.0157 32.5553 15.3603C33.0426 15.581 33.6193 15.3726 33.8447 14.8919C34.0693 14.4124 33.8565 13.8447 33.3699 13.6226C32.2847 13.1309 31.0097 12.9052 29.6798 12.9041C28.3145 12.9041 26.89 13.1469 25.5633 13.6483C24.2399 14.151 23.0071 14.9189 22.0781 15.9991C21.7315 16.4026 21.7825 17.007 22.192 17.348C22.6012 17.6903 23.2142 17.6388 23.5607 17.2366Z" fill="white"/>
<path d="M67.5159 14.4712L67.5167 14.4727L67.5159 14.4712Z" fill="white"/>
<path d="M47.1238 46.4185V46.4206H47.1226L47.1238 46.4185Z" fill="white"/>
<path d="M68.9993 20.9495C68.8276 20.7778 68.6434 20.6147 68.4568 20.4542C68.5544 19.9183 68.611 19.3725 68.611 18.8182C68.6116 17.3492 68.2564 15.8531 67.5165 14.4723C66.6708 12.8891 65.4181 11.6333 63.9557 10.7823C62.9328 10.1863 61.8078 9.7891 60.6416 9.60388C60.3586 8.61188 59.9147 7.66752 59.3186 6.81047C58.3261 5.3831 56.9147 4.20103 55.1878 3.46884C53.9527 2.94521 52.6564 2.69383 51.3833 2.69383C51.3833 2.69383 51.3441 2.69259 51.2726 2.6988C49.6559 2.71731 48.0822 3.13541 46.69 3.89937C46.1456 3.25309 45.5159 2.67795 44.8151 2.19355C43.2793 1.13041 41.4013 0.500012 39.3919 0.480398C39.3688 0.479155 39.3409 0.47805 39.3067 0.476807C39.3023 0.476807 39.298 0.476807 39.2931 0.476807H39.2918H39.2906H39.29C39.2869 0.476807 39.2838 0.476807 39.2808 0.476807C39.2621 0.476807 39.2397 0.47805 39.2111 0.479155C37.4613 0.492691 35.8079 0.968527 34.3953 1.79243C33.783 2.1481 33.2242 2.57601 32.7114 3.05185C31.248 2.15294 29.5185 1.62807 27.6766 1.6195L27.6698 1.6184H27.6262C27.625 1.6184 27.6243 1.6184 27.6231 1.6184C27.6206 1.6184 27.6181 1.6184 27.6152 1.6184C27.5927 1.6184 27.5647 1.6195 27.5292 1.62199C25.5696 1.64036 23.732 2.23885 22.2169 3.2542C21.3388 3.84164 20.5703 4.56886 19.9349 5.40133C19.131 5.18682 18.2916 5.07039 17.4339 5.07039C16.7203 5.07039 15.9965 5.15008 15.276 5.31196C13.1539 5.79139 11.3414 6.93796 10.0424 8.46961H10.0431C9.13155 9.54255 8.47382 10.808 8.11285 12.173C6.72884 12.6354 5.4246 13.4104 4.3337 14.5053C4.33314 14.5066 4.33188 14.5078 4.33062 14.5091C2.50112 16.3472 1.58012 18.7519 1.58083 21.1396V21.1431V21.1481C1.58083 21.1481 1.58083 21.1505 1.58083 21.1529V21.1786H1.58139C1.58377 22.0088 1.69774 22.8365 1.91992 23.641C0.672731 25.2856 0.000701542 27.2832 6.35731e-07 29.3275C-0.000560089 30.8407 0.369799 32.3796 1.13939 33.7984C2.00431 35.3914 3.27632 36.6532 4.75607 37.5079C5.79397 38.1075 6.93337 38.5038 8.11369 38.6901C8.74227 40.3542 9.81998 41.7901 11.1989 42.8533C12.8392 44.1201 14.9084 44.8693 17.1255 44.8693C17.3558 44.8693 17.5855 44.8621 17.8149 44.8449H17.8205H17.8236H17.8243H17.8249C18.8036 44.775 19.7414 44.558 20.6151 44.2232C21.1957 45.1403 21.9255 45.9508 22.7732 46.6194C24.4129 47.913 26.498 48.6857 28.7332 48.6955C28.7414 48.6967 28.7481 48.6967 28.7551 48.6967C28.7627 48.6967 28.77 48.6967 28.777 48.6967H28.7782C28.7789 48.6967 28.7789 48.6967 28.7789 48.6967H28.7808H28.7907C28.7939 48.6967 28.7952 48.6967 28.7983 48.6967L28.8225 48.6955H28.8294C29.008 48.6943 29.1873 48.6869 29.3657 48.6759H29.3683L29.4734 48.6734C30.2736 48.6157 31.0465 48.4623 31.779 48.2246C32.7018 49.5748 33.9868 50.7139 35.5767 51.4694H35.576C36.9176 52.107 38.3488 52.4124 39.7535 52.4124C41.1211 52.4124 42.459 52.1194 43.6861 51.5773C45.4695 53.4436 47.9842 54.5645 50.6891 54.5671C51.2822 54.5671 51.8821 54.5131 52.4821 54.4015C54.7864 53.9749 56.7608 52.7595 58.1423 51.1004H58.1417C59.0439 50.0201 59.6931 48.7448 60.0403 47.3688C61.6339 47.2144 63.2152 46.6674 64.6128 45.6986C65.9427 44.7789 66.9732 43.577 67.6638 42.2356C68.3546 40.8952 68.7106 39.4162 68.7106 37.9239C68.7106 36.9294 68.5463 35.9311 68.2233 34.9685C69.0527 34.3027 69.7863 33.4908 70.3713 32.5406C71.3172 31.0077 71.7727 29.2982 71.7727 27.6181C71.7723 25.1618 70.8058 22.7521 68.9993 20.9495ZM67.466 30.8014C66.4897 32.3857 64.9159 33.3718 63.1965 33.6649C62.6676 33.7544 62.313 34.2498 62.4037 34.7696C62.4945 35.2909 62.9968 35.6403 63.5251 35.5508C63.9203 35.4847 64.3093 35.3877 64.6907 35.2652C65.1062 36.1113 65.3112 37.0188 65.3112 37.9238C65.3117 38.8913 65.0797 39.8527 64.633 40.7197C64.1855 41.5868 63.5258 42.358 62.6596 42.9589C61.5689 43.7119 60.3305 44.0713 59.0965 44.0724C59.0001 44.0724 58.9036 44.065 58.8072 44.0602C58.7867 43.9008 58.7667 43.7427 58.7368 43.5844V43.5831C58.524 42.4733 58.0859 41.458 57.4841 40.5763L57.4107 40.4683L57.3112 40.3836C56.5749 39.7632 55.5986 38.7429 54.8449 37.7031C54.4673 37.1843 54.1443 36.6594 53.9272 36.1923C53.7074 35.725 53.6067 35.3166 53.6104 35.0751C53.6104 34.9672 53.6266 34.8949 53.6447 34.8458C53.6639 34.798 53.682 34.7697 53.72 34.7306C54.0989 34.3578 54.0989 33.7508 53.72 33.378C53.3404 33.0041 52.7255 33.0041 52.3465 33.378V33.3769C52.1102 33.6098 51.9316 33.8906 51.8219 34.1849C51.7125 34.4793 51.6683 34.7822 51.6683 35.0753C51.6719 35.7387 51.8755 36.3664 52.1617 36.9894C52.5956 37.919 53.2427 38.8423 53.9415 39.6847C54.5992 40.477 55.2993 41.187 55.9259 41.7314C56.3571 42.3863 56.6721 43.1246 56.8277 43.9375C56.893 44.2797 56.929 44.6193 56.9341 44.9467L56.9346 44.9517C56.9353 44.9959 56.9359 45.0388 56.9359 45.0829C56.9359 46.53 56.4137 47.8971 55.5159 48.9751C54.6166 50.0519 53.3515 50.8317 51.8538 51.11C51.4618 51.1826 51.0728 51.2181 50.6901 51.2181C48.6304 51.2193 46.7249 50.2015 45.5801 48.5778C46.1962 47.9622 46.7213 47.2387 47.1232 46.4196C47.6217 45.4043 47.883 44.33 47.9309 43.2681C47.9546 42.7382 47.539 42.2919 47.0038 42.2686C46.4674 42.2454 46.0137 42.6548 45.99 43.1823C45.9533 43.9953 45.7555 44.8095 45.374 45.5856L45.3735 45.5881C44.9664 46.4195 44.3964 47.1148 43.7188 47.6655L43.7151 47.6679C42.6019 48.568 41.193 49.0635 39.7537 49.0635C38.8465 49.0635 37.9273 48.8672 37.053 48.4527C35.4338 47.6825 34.3094 46.3214 33.8121 44.7568L33.8114 44.7555C33.6216 44.1619 33.5234 43.5402 33.5234 42.9136C33.5234 42.0197 33.7226 41.1147 34.1449 40.249C34.3783 39.7731 34.1749 39.2017 33.6919 38.9724C33.2091 38.7431 32.6285 38.943 32.3958 39.4188C31.8443 40.5445 31.5812 41.7401 31.5812 42.9138C31.5812 43.4827 31.6472 44.0457 31.7666 44.5975C31.0081 45.0058 30.1524 45.2658 29.2277 45.3334H29.2258C29.0753 45.3432 28.9258 45.3481 28.7791 45.3481C27.3211 45.3481 25.9701 44.8501 24.8961 44.0041C23.9613 43.2682 23.2451 42.2714 22.8624 41.1173C23.5462 40.4527 24.1126 39.6753 24.5264 38.8132C24.7553 38.3361 24.5481 37.7647 24.0634 37.539C23.5786 37.3133 22.9993 37.5169 22.7702 37.9952C22.3857 38.7971 21.8282 39.5085 21.1417 40.0787C20.1697 40.8867 18.942 41.408 17.5749 41.5048H17.573C17.423 41.5146 17.2737 41.5207 17.1262 41.5207C14.0422 41.5219 11.4101 39.2803 10.9657 36.276L10.9646 36.2685L10.9633 36.2611C10.9396 36.1189 10.9228 35.9692 10.9116 35.8148C10.9011 35.6651 10.8956 35.5179 10.8956 35.3708C10.8956 34.9833 10.9323 34.6044 11.0018 34.2353C11.099 33.7153 10.7505 33.2163 10.2229 33.1193C9.69578 33.0236 9.18931 33.3671 9.0916 33.887C9.00132 34.3677 8.95338 34.8643 8.95338 35.3708L8.95534 35.426C8.08229 35.3302 7.23476 35.0569 6.47553 34.6179C5.51782 34.0648 4.70084 33.2567 4.13703 32.2193C3.63546 31.2947 3.39968 30.3063 3.39898 29.3289C3.39898 28.0683 3.79611 26.8298 4.53094 25.7949C4.81214 26.1873 5.13274 26.5601 5.49174 26.907C6.31012 27.6993 7.25957 28.2868 8.26593 28.6692C8.76568 28.8607 9.32823 28.6154 9.52168 28.1224C9.71527 27.6294 9.46644 27.0751 8.9667 26.8849C8.19878 26.5918 7.47825 26.1468 6.85276 25.541L6.8515 25.5399C6.30143 25.0088 5.87388 24.4031 5.56576 23.7544C5.17563 22.9328 4.97966 22.0412 4.97966 21.1485C4.98022 19.5948 5.56954 18.051 6.7587 16.8529C7.76983 15.8388 9.04254 15.2451 10.3653 15.0674H10.3665H10.3678L10.3715 15.0661C10.651 15.0294 10.9322 15.0098 11.2146 15.011C12.791 15.0122 14.3609 15.5936 15.5762 16.7646C15.9595 17.1337 16.5743 17.1276 16.9496 16.75C17.3249 16.3724 17.318 15.7665 16.9347 15.3973C15.3883 13.9049 13.3828 13.1422 11.374 13.1042C11.6031 12.1882 12.0399 11.3372 12.6497 10.6198C13.4934 9.62653 14.6541 8.89075 16.036 8.57679C16.5054 8.47126 16.9733 8.41988 17.4336 8.41988C18.2475 8.41988 19.0386 8.57928 19.7696 8.87113C19.5617 9.58358 19.4473 10.3354 19.4473 11.1115C19.4473 11.64 19.8823 12.068 20.4187 12.068C20.955 12.068 21.3894 11.6401 21.3894 11.1115C21.3894 10.2739 21.5606 9.47446 21.8662 8.74848C22.3352 7.6399 23.1281 6.6932 24.1256 6.02482C25.1251 5.35658 26.3242 4.969 27.6247 4.96776C29.4958 4.969 31.1673 5.77592 32.3129 7.06227L32.3149 7.06351C33.2781 8.14377 33.8587 9.5565 33.8594 11.1114C33.8594 11.6398 34.2937 12.0679 34.8307 12.0679C35.3672 12.0679 35.8015 11.64 35.8015 11.1114C35.8022 9.34435 35.2221 7.70357 34.2396 6.37538C34.7424 5.68876 35.3833 5.1074 36.125 4.67577C37.0534 4.13501 38.1313 3.82603 39.2911 3.82603C40.6234 3.82603 41.8493 4.23557 42.8618 4.93585C43.8742 5.63476 44.6671 6.62441 45.1144 7.7783L45.1138 7.77719C45.3778 8.46022 45.5228 9.19476 45.5233 9.96977C45.5233 10.4982 45.9577 10.9264 46.4942 10.9264C47.0305 10.9264 47.4655 10.4984 47.4655 9.96977C47.4655 9.17998 47.3454 8.41726 47.1301 7.69625C48.28 6.64044 49.8064 6.04319 51.3815 6.04319C52.2041 6.04319 53.038 6.20507 53.8445 6.54596C54.969 7.02304 55.8719 7.78203 56.5159 8.70663C57.1593 9.62998 57.539 10.7177 57.6032 11.8409C57.6093 11.9563 57.6131 12.0727 57.6131 12.1891C57.6124 12.9996 57.4499 13.8202 57.1041 14.6149C56.8924 15.1005 57.1197 15.6632 57.6124 15.8717C58.1053 16.0813 58.6764 15.8558 58.8881 15.3701C59.2483 14.5461 59.4555 13.6914 59.5257 12.8404C60.4779 12.903 61.4052 13.1874 62.2265 13.6657C63.1641 14.2127 63.9619 15.0096 64.5089 16.0324V16.0335C64.9875 16.9264 65.2115 17.8779 65.2121 18.8185C65.2121 19.2502 65.1616 19.6768 65.0689 20.0951C64.4827 19.8719 63.8809 19.7185 63.2742 19.634C62.7433 19.5604 62.2525 19.9248 62.1778 20.4495C62.1031 20.972 62.4728 21.4563 63.0042 21.5299C63.6134 21.6146 64.214 21.7875 64.7901 22.0548C64.8922 22.2179 65.0427 22.3539 65.235 22.4349C65.3552 22.4852 65.4797 22.5097 65.6029 22.5108C65.9612 22.7463 66.2874 23.01 66.5785 23.3019L66.5655 23.2885L66.5811 23.3044C67.744 24.462 68.3737 26.0255 68.3731 27.6184C68.3733 28.7057 68.0821 29.8034 67.466 30.8014Z" fill="white"/>
</svg>
