<svg width="81" height="81" viewBox="0 0 81 81" fill="none" xmlns="http://www.w3.org/2000/svg">
<path d="M31.7549 13.1699C36.3451 13.1699 40.9493 15.0869 44.4072 17.8799C47.8779 20.6833 50.1044 24.2913 50.1045 27.6152V38.2949C50.1045 40.8156 49.7072 44.3323 48.583 47.7861C47.4576 51.2434 45.6182 54.5932 42.7627 56.8379L42.1699 57.3037L42.8291 57.6689L58.7656 66.4893L58.8936 66.3174C58.8138 66.5113 58.8145 66.5117 58.8145 66.5117L58.8164 66.5127C58.8179 66.5133 58.8202 66.5144 58.8232 66.5156C58.8301 66.5185 58.8413 66.5232 58.8555 66.5293C58.8841 66.5416 58.9273 66.56 58.9824 66.585C59.0933 66.6352 59.2536 66.7105 59.4463 66.8086C59.8331 67.0055 60.3454 67.2924 60.8545 67.6514C61.3661 68.0122 61.8577 68.4341 62.2168 68.8984C62.5757 69.3625 62.7802 69.8387 62.7803 70.3203V76.7285C62.7803 78.8089 61.0881 80.4997 59.0078 80.5H4.27246C2.19175 80.5 0.5 78.8114 0.5 76.7285V70.3203L0.508789 70.1553C0.551738 69.7671 0.744356 69.3669 1.06152 68.9619C1.42229 68.5012 1.91509 68.0722 2.42871 67.7012C2.93958 67.3321 3.45396 67.0327 3.8418 66.8242C4.03488 66.7204 4.19525 66.6399 4.30664 66.5859C4.36229 66.559 4.40573 66.5378 4.43457 66.5244C4.44898 66.5177 4.45987 66.5129 4.4668 66.5098C4.47026 66.5082 4.47312 66.5075 4.47461 66.5068L4.47559 66.5059L4.49316 66.498L4.51074 66.4893L20.8564 57.6299L21.5186 57.2715L20.9307 56.8008C18.0388 54.4834 16.0915 51.0214 14.8672 47.5293C13.6439 44.0397 13.1602 40.57 13.1602 38.2949V27.6152C13.1602 24.2964 15.4434 20.689 18.9785 17.8828C22.4995 15.0878 27.1662 13.17 31.7549 13.1699ZM58.7178 71.1104L58.502 70.9609C58.233 70.775 57.8912 70.5707 57.5635 70.4062L57.2441 70.2578C57.1741 70.2264 57.0998 70.1924 57.0283 70.1582L56.8223 70.0537L40.8887 61.2344L40.8867 61.2334L40.6396 61.0879C39.5147 60.3784 38.7526 59.2096 38.5586 57.8955L38.5254 57.6113C38.4058 56.183 38.9696 54.7838 40.0332 53.833L40.252 53.6484C42.552 51.8404 43.9924 48.9784 44.8594 46.1191C45.729 43.2512 46.042 40.3199 46.042 38.2969V27.6182C46.042 26.554 45.5835 25.3748 44.834 24.2305C44.0792 23.0781 43.003 21.9194 41.7012 20.8877C39.1012 18.8271 35.5479 17.2295 31.7549 17.2295C28.0273 17.2295 24.4145 18.85 21.7412 20.916C20.402 21.9511 19.2829 23.1101 18.4941 24.2568C17.7125 25.3934 17.2227 26.5657 17.2227 27.6182V38.2969C17.2227 40.3679 17.6892 43.3108 18.6914 46.168C19.6289 48.8406 21.0555 51.4975 23.0645 53.2891L23.4746 53.6357C24.5912 54.5313 25.2202 55.8955 25.1816 57.3145L25.165 57.5986C25.0367 59.023 24.2468 60.2977 23.041 61.0527L22.7949 61.1963L6.44629 70.0557L6.43457 70.0615C6.38737 70.0888 6.33808 70.1152 6.28711 70.1406L6.12891 70.2158L6.12598 70.2168C5.69077 70.415 5.15229 70.7395 4.7666 71.0225L4.5625 71.1719V76.4473H58.7178V71.1104ZM76.4355 58.5186L76.2197 58.3701C75.863 58.1235 75.3781 57.8442 74.9678 57.6689C74.8233 57.6042 74.6594 57.5275 74.5391 57.4619H74.54L58.3662 48.6416C57.1045 47.9536 56.2457 46.7147 56.0381 45.3047L56.0049 45.0205C55.8852 43.5916 56.4468 42.1918 57.5117 41.2412L57.7314 41.0576H57.7324C60.0267 39.2529 61.5263 36.3957 62.4531 33.5371C63.3825 30.6707 63.7568 27.7372 63.7568 25.7061V15.0264C63.7568 13.9575 63.2809 12.7713 62.5098 11.6211C61.7326 10.462 60.6264 9.29534 59.2959 8.25488C56.6391 6.17725 53.0279 4.56055 49.2344 4.56055C45.5523 4.56064 42.1545 5.77037 39.4346 7.81738C37.7802 7.33725 35.9377 7.24478 34.2461 7.16016C37.8833 3.36418 43.6322 0.500144 49.2344 0.5C53.8243 0.5 58.4885 2.43647 62.0068 5.25098C65.5391 8.07667 67.8193 11.7044 67.8193 15.0244V25.7031C67.8193 28.2172 67.3648 31.7325 66.1816 35.1875C64.9974 38.6456 63.099 41.9999 60.2402 44.2471L59.6436 44.7158L60.3096 45.0791L76.4834 53.8994L76.5068 53.9121L76.5322 53.9229L76.5332 53.9238C76.5346 53.9244 76.5376 53.9253 76.541 53.9268C76.5478 53.9296 76.5583 53.9344 76.5723 53.9404C76.6008 53.9527 76.644 53.971 76.6992 53.9961C76.8101 54.0464 76.9703 54.1224 77.1631 54.2207C77.5499 54.4179 78.0629 54.704 78.5723 55.0635C79.084 55.4247 79.575 55.8476 79.9346 56.3125C80.294 56.7774 80.4995 57.2547 80.5 57.7373V64.0664C80.5 66.147 78.8081 67.8379 76.7275 67.8379H68.709C68.2821 66.2628 67.865 64.8847 66.9551 63.7803H76.4355V58.5186Z" fill="white" stroke="white"/>
</svg>
