<svg width="57" height="65" viewBox="0 0 57 65" fill="none" xmlns="http://www.w3.org/2000/svg">
<path d="M37.6093 30.8687L41.7008 35.1665L22.4956 53.8454C16.2009 59.9676 8.35709 63.8572 0 65L2.54833 59.8883C5.19592 54.5772 6.51972 51.9217 8.04026 49.4104C9.39136 47.1789 10.858 45.034 12.433 42.986C14.2055 40.6808 16.16 38.5415 20.0691 34.2634L28.8698 24.6311M27.2659 22.875L46.351 1.99857C48.3402 -0.177273 51.4142 -0.627443 53.8562 0.899472C57.4274 3.13232 58.0808 8.4695 55.1724 11.6518L54.0233 12.9092C53.3218 13.6765 52.3707 14.1076 51.3789 14.1076H48.1163L41.7008 21.1272V21.7398C41.7008 23.4567 41.7008 24.3152 41.5234 25.1231C41.3662 25.8393 41.107 26.5239 40.7554 27.1521C40.3586 27.8604 39.8037 28.4676 38.6941 29.6817L36.0875 32.5337L27.2659 22.875Z" fill="black"/>
<path d="M37.6093 30.8687L41.7008 35.1665L22.4956 53.8454C16.2009 59.9676 8.35709 63.8572 0 65L2.54833 59.8883C5.19592 54.5772 6.51972 51.9217 8.04026 49.4104C9.39136 47.1789 10.858 45.034 12.433 42.986C14.2055 40.6808 16.16 38.5415 20.0691 34.2634L28.8698 24.6311M27.2659 22.875L46.351 1.99857C48.3402 -0.177273 51.4142 -0.627443 53.8562 0.899472C57.4274 3.13232 58.0808 8.4695 55.1724 11.6518L54.0233 12.9091C53.3218 13.6765 52.3707 14.1076 51.3789 14.1076H48.1163L41.7008 21.1272V21.7398C41.7008 23.4567 41.7008 24.3152 41.5234 25.1231C41.3662 25.8393 41.107 26.5239 40.7554 27.1521C40.3586 27.8604 39.8037 28.4676 38.6941 29.6817L36.0875 32.5337L27.2659 22.875Z" stroke="white" stroke-width="2" stroke-linecap="round" stroke-linejoin="round"/>
</svg>
